<svg xmlns="http://www.w3.org/2000/svg" xmlns:xlink="http://www.w3.org/1999/xlink" width="500" zoomAndPan="magnify" viewBox="0 0 375 374.999991" height="500" preserveAspectRatio="xMidYMid meet" version="1.0"><defs><g/><clipPath id="332fd29d82"><path d="M 48.199219 37.5 L 303 37.5 L 303 181.5 L 48.199219 181.5 Z M 48.199219 37.5 " clip-rule="nonzero"/></clipPath></defs><g clip-path="url(#332fd29d82)"><path fill="#bd8334" d="M 302.867188 87.324219 L 295.898438 93.839844 L 296.921875 98.296875 C 263.476562 135.371094 241.386719 152.90625 234.941406 143.558594 C 229.789062 125.824219 232.367188 108.285156 240.46875 90.886719 L 247.351562 87.660156 L 248.679688 72.402344 L 238.101562 83.480469 L 240.269531 90.90625 C 231.523438 105.582031 222.125 118.578125 211.382812 128.074219 C 200.070312 138.074219 196.617188 139.472656 189.300781 123.746094 C 183.878906 112.09375 182.023438 96.480469 178.378906 82.851562 L 187.644531 72.03125 L 175.535156 37.539062 L 163.425781 72.03125 L 172.691406 82.847656 C 169.046875 96.476562 167.191406 112.09375 161.765625 123.746094 C 154.453125 139.472656 151 138.070312 139.683594 128.074219 C 128.941406 118.578125 119.542969 105.578125 110.800781 90.90625 L 112.964844 83.484375 L 102.386719 72.402344 L 103.714844 87.664062 L 110.601562 90.886719 C 118.703125 108.289062 121.28125 125.824219 116.132812 143.558594 C 109.683594 152.90625 87.597656 135.371094 54.144531 98.296875 L 55.167969 93.839844 L 48.199219 87.324219 L 49.570312 96.765625 L 53.707031 98.421875 L 101.359375 181.382812 L 86.726562 141.082031 C 87.023438 141.324219 87.320312 141.5625 87.617188 141.800781 C 95.078125 147.777344 108.152344 157.453125 118.058594 151.6875 C 119.738281 150.714844 121.144531 149.375 122.246094 147.78125 L 122.925781 146.789062 L 123.261719 145.628906 C 125.261719 138.746094 126.195312 131.910156 126.207031 125.144531 C 128.929688 128.144531 131.777344 130.992188 134.769531 133.636719 C 139.808594 138.085938 146.1875 143.957031 153.464844 142.882812 C 161.335938 141.722656 165.503906 133.332031 168.503906 126.878906 C 171.832031 119.726562 173.824219 111.75 175.535156 103.929688 C 177.25 111.75 179.242188 119.726562 182.570312 126.878906 C 185.574219 133.332031 189.742188 141.722656 197.609375 142.882812 C 204.890625 143.957031 211.269531 138.085938 216.304688 133.636719 C 219.292969 130.992188 222.148438 128.144531 224.863281 125.144531 C 224.878906 131.910156 225.8125 138.746094 227.808594 145.628906 L 228.144531 146.789062 L 228.828125 147.78125 C 229.929688 149.375 231.335938 150.714844 233.015625 151.6875 C 242.925781 157.453125 255.996094 147.777344 263.453125 141.800781 C 263.753906 141.5625 264.046875 141.324219 264.34375 141.082031 L 251.503906 178.40625 L 297.363281 98.421875 L 301.496094 96.765625 Z M 302.867188 87.324219 " fill-opacity="1" fill-rule="evenodd"/></g><path fill="#bd8334" d="M 150.523438 118.117188 C 151.378906 122.011719 152.335938 125.957031 153.640625 129.722656 C 154.515625 128.578125 155.691406 126.671875 157.25 123.46875 C 154.875 114.714844 153.578125 104.765625 150.523438 96.765625 C 147.222656 105.414062 145.96875 116.339844 143.195312 125.570312 C 144.425781 126.652344 146.042969 128.039062 147.582031 129.195312 C 148.800781 125.589844 149.710938 121.828125 150.523438 118.117188 Z M 150.523438 118.117188 " fill-opacity="1" fill-rule="evenodd"/><path fill="#bd8334" d="M 200.472656 118.117188 C 201.292969 121.84375 202.207031 125.621094 203.425781 129.238281 C 204.964844 128.09375 206.578125 126.710938 207.816406 125.621094 C 205.03125 116.378906 203.78125 105.429688 200.472656 96.765625 C 197.433594 104.738281 196.132812 114.644531 193.773438 123.375 C 195.324219 126.570312 196.503906 128.496094 197.378906 129.65625 C 198.671875 125.910156 199.625 121.988281 200.472656 118.117188 Z M 200.472656 118.117188 " fill-opacity="1" fill-rule="evenodd"/><path fill="#bd8334" d="M 244.621094 140.484375 C 245.53125 134.554688 247.078125 128.324219 247.230469 122.753906 C 243.730469 126.460938 240.664062 131.382812 237.453125 135.898438 C 237.75 137.542969 238.117188 139.183594 238.550781 140.816406 C 239.523438 139.546875 240.457031 138.238281 241.363281 136.9375 C 241.074219 138.539062 240.808594 140.164062 240.601562 141.792969 C 241.597656 141.664062 242.910156 141.285156 244.621094 140.484375 Z M 244.621094 140.484375 " fill-opacity="1" fill-rule="evenodd"/><path fill="#bd8334" d="M 113.617188 135.898438 C 110.40625 131.382812 107.339844 126.460938 103.835938 122.753906 C 103.992188 128.320312 105.539062 134.554688 106.445312 140.484375 C 108.15625 141.285156 109.46875 141.664062 110.464844 141.785156 C 110.253906 140.160156 109.988281 138.535156 109.703125 136.933594 C 110.609375 138.238281 111.542969 139.542969 112.519531 140.816406 C 112.949219 139.183594 113.320312 137.542969 113.617188 135.898438 Z M 113.617188 135.898438 " fill-opacity="1" fill-rule="evenodd"/><g fill="#bd8334" fill-opacity="1"><g transform="translate(129.4945, 296.801519)"><g><path d="M 81.445312 -29.035156 C 74.113281 -47.371094 62.957031 -54.398438 49.664062 -56.84375 C 72.125 -58.527344 89.851562 -66.320312 89.851562 -89.394531 C 89.851562 -115.980469 66.167969 -122.246094 38.964844 -122.246094 L 10.695312 -122.246094 C 11.613281 -109.410156 11.917969 -103.296875 11.917969 -92.144531 L 11.917969 -30.101562 C 11.917969 -18.949219 11.613281 -12.835938 10.695312 0 L 28.117188 0 C 27.199219 -12.835938 26.894531 -18.949219 26.894531 -30.101562 L 26.894531 -56.539062 L 32.394531 -56.539062 C 48.136719 -56.539062 57.609375 -51.953125 66.167969 -27.964844 C 73.652344 -6.570312 85.113281 0 110.328125 0 L 110.328125 -2.292969 C 96.117188 -2.292969 89.242188 -8.558594 81.445312 -29.035156 Z M 26.894531 -58.984375 L 26.894531 -119.800781 L 38.8125 -119.800781 C 56.691406 -119.800781 74.265625 -113.691406 74.265625 -89.394531 C 74.265625 -65.097656 56.691406 -58.984375 38.8125 -58.984375 Z M 26.894531 -58.984375 "/></g></g></g></svg>