<svg xmlns="http://www.w3.org/2000/svg" xmlns:xlink="http://www.w3.org/1999/xlink" width="500" zoomAndPan="magnify" viewBox="0 0 375 374.999991" height="500" preserveAspectRatio="xMidYMid meet" version="1.0"><defs><g/><clipPath id="9bf45a6132"><path d="M 88.085938 28.886719 L 281.585938 28.886719 L 281.585938 138.386719 L 88.085938 138.386719 Z M 88.085938 28.886719 " clip-rule="nonzero"/></clipPath></defs><g clip-path="url(#9bf45a6132)"><path fill="#bd8334" d="M 281.6875 66.761719 L 276.390625 71.710938 L 277.167969 75.101562 C 251.742188 103.285156 234.949219 116.617188 230.046875 109.511719 C 226.132812 96.027344 228.09375 82.695312 234.253906 69.464844 L 239.484375 67.015625 L 240.496094 55.414062 L 232.453125 63.839844 L 234.097656 69.484375 C 227.453125 80.636719 220.308594 90.519531 212.140625 97.738281 C 203.539062 105.339844 200.914062 106.40625 195.351562 94.449219 C 191.230469 85.589844 189.820312 73.722656 187.050781 63.359375 L 194.09375 55.136719 L 184.890625 28.914062 L 175.683594 55.136719 L 182.726562 63.355469 C 179.953125 73.71875 178.542969 85.589844 174.421875 94.449219 C 168.859375 106.40625 166.238281 105.339844 157.632812 97.738281 C 149.464844 90.519531 142.320312 80.636719 135.675781 69.480469 L 137.320312 63.839844 L 129.277344 55.417969 L 130.289062 67.019531 L 135.527344 69.46875 C 141.683594 82.695312 143.644531 96.027344 139.726562 109.511719 C 134.828125 116.617188 118.035156 103.285156 92.605469 75.101562 L 93.382812 71.710938 L 88.085938 66.761719 L 89.128906 73.9375 L 92.273438 75.195312 L 128.5 138.265625 L 117.375 107.628906 C 117.601562 107.8125 117.828125 107.992188 118.050781 108.175781 C 123.722656 112.714844 133.660156 120.074219 141.195312 115.691406 C 142.46875 114.949219 143.539062 113.929688 144.375 112.71875 L 144.894531 111.964844 L 145.148438 111.085938 C 146.667969 105.851562 147.378906 100.652344 147.386719 95.511719 C 149.457031 97.792969 151.621094 99.957031 153.898438 101.96875 C 157.726562 105.351562 162.578125 109.8125 168.109375 108.996094 C 174.09375 108.113281 177.261719 101.734375 179.542969 96.828125 C 182.074219 91.390625 183.589844 85.328125 184.890625 79.382812 C 186.191406 85.328125 187.703125 91.390625 190.234375 96.828125 C 192.519531 101.734375 195.6875 108.113281 201.667969 108.996094 C 207.203125 109.8125 212.054688 105.351562 215.878906 101.96875 C 218.15625 99.957031 220.324219 97.792969 222.390625 95.511719 C 222.402344 100.65625 223.109375 105.851562 224.625 111.085938 L 224.882812 111.964844 L 225.402344 112.71875 C 226.242188 113.929688 227.308594 114.949219 228.585938 115.691406 C 236.121094 120.074219 246.054688 112.714844 251.722656 108.175781 C 251.953125 107.992188 252.175781 107.8125 252.402344 107.628906 L 242.640625 136 L 277.503906 75.195312 L 280.644531 73.9375 Z M 281.6875 66.761719 " fill-opacity="1" fill-rule="evenodd"/></g><path fill="#bd8334" d="M 165.875 90.167969 C 166.523438 93.128906 167.25 96.128906 168.246094 98.992188 C 168.90625 98.121094 169.800781 96.671875 170.988281 94.238281 C 169.183594 87.582031 168.195312 80.019531 165.871094 73.9375 C 163.363281 80.511719 162.414062 88.816406 160.304688 95.835938 C 161.238281 96.65625 162.464844 97.710938 163.636719 98.589844 C 164.5625 95.851562 165.257812 92.992188 165.875 90.167969 Z M 165.875 90.167969 " fill-opacity="1" fill-rule="evenodd"/><path fill="#bd8334" d="M 203.84375 90.167969 C 204.46875 93.003906 205.164062 95.875 206.09375 98.625 C 207.257812 97.753906 208.488281 96.699219 209.429688 95.875 C 207.3125 88.847656 206.363281 80.523438 203.847656 73.9375 C 201.535156 79.996094 200.546875 87.527344 198.753906 94.164062 C 199.933594 96.59375 200.828125 98.058594 201.496094 98.941406 C 202.476562 96.09375 203.203125 93.113281 203.84375 90.167969 Z M 203.84375 90.167969 " fill-opacity="1" fill-rule="evenodd"/><path fill="#bd8334" d="M 237.410156 107.171875 C 238.097656 102.667969 239.273438 97.929688 239.390625 93.695312 C 236.730469 96.511719 234.398438 100.253906 231.957031 103.683594 C 232.183594 104.9375 232.464844 106.183594 232.792969 107.425781 C 233.53125 106.460938 234.242188 105.46875 234.929688 104.476562 C 234.710938 105.695312 234.511719 106.929688 234.351562 108.167969 C 235.109375 108.070312 236.105469 107.78125 237.410156 107.171875 Z M 237.410156 107.171875 " fill-opacity="1" fill-rule="evenodd"/><path fill="#bd8334" d="M 137.816406 103.6875 C 135.375 100.253906 133.042969 96.511719 130.382812 93.695312 C 130.5 97.925781 131.675781 102.664062 132.363281 107.171875 C 133.667969 107.78125 134.664062 108.070312 135.421875 108.164062 C 135.261719 106.925781 135.058594 105.691406 134.839844 104.472656 C 135.53125 105.464844 136.242188 106.457031 136.984375 107.425781 C 137.308594 106.183594 137.589844 104.9375 137.816406 103.6875 Z M 137.816406 103.6875 " fill-opacity="1" fill-rule="evenodd"/><g fill="#bd8334" fill-opacity="1"><g transform="translate(17.289788, 242.730651)"><g><path d="M 63.261719 -22.550781 C 57.566406 -36.796875 48.902344 -42.253906 38.574219 -44.152344 C 56.023438 -45.460938 69.792969 -51.511719 69.792969 -69.4375 C 69.792969 -90.089844 51.394531 -94.953125 30.265625 -94.953125 L 8.308594 -94.953125 C 9.019531 -84.984375 9.257812 -80.238281 9.257812 -71.570312 L 9.257812 -23.382812 C 9.257812 -14.71875 9.019531 -9.96875 8.308594 0 L 21.839844 0 C 21.128906 -9.96875 20.890625 -14.71875 20.890625 -23.382812 L 20.890625 -43.917969 L 25.164062 -43.917969 C 37.386719 -43.917969 44.746094 -40.355469 51.394531 -21.722656 C 57.210938 -5.105469 66.113281 0 85.695312 0 L 85.695312 -1.78125 C 74.65625 -1.78125 69.316406 -6.648438 63.261719 -22.550781 Z M 20.890625 -45.816406 L 20.890625 -93.054688 L 30.148438 -93.054688 C 44.035156 -93.054688 57.683594 -88.308594 57.683594 -69.4375 C 57.683594 -50.5625 44.035156 -45.816406 30.148438 -45.816406 Z M 20.890625 -45.816406 "/></g></g></g><g fill="#bd8334" fill-opacity="1"><g transform="translate(107.376806, 242.730651)"><g><path d="M 7.121094 -94.953125 C 7.832031 -84.984375 8.070312 -80.238281 8.070312 -71.570312 L 8.070312 -40.355469 C 8.070312 -6.527344 22.078125 2.375 44.152344 2.375 C 65.28125 2.375 75.726562 -9.257812 75.726562 -40.355469 L 75.726562 -71.570312 C 75.726562 -80.238281 75.84375 -84.984375 76.675781 -94.953125 L 72.878906 -94.953125 C 73.707031 -84.984375 73.828125 -80.238281 73.828125 -71.570312 L 73.828125 -40.355469 C 73.828125 -10.917969 64.332031 -0.59375 46.171875 -0.59375 C 27.417969 -0.59375 19.703125 -12.105469 19.703125 -40.355469 L 19.703125 -71.570312 C 19.703125 -80.238281 19.941406 -84.984375 20.652344 -94.953125 Z M 7.121094 -94.953125 "/></g></g></g><g fill="#bd8334" fill-opacity="1"><g transform="translate(191.173165, 242.730651)"><g><path d="M 46.410156 -53.769531 C 60.769531 -56.023438 66.941406 -62.789062 66.941406 -73.828125 C 66.941406 -92.226562 50.089844 -94.953125 34.777344 -94.953125 L 8.308594 -94.953125 C 9.019531 -84.984375 9.257812 -80.238281 9.257812 -71.570312 L 9.257812 -23.382812 C 9.257812 -14.71875 9.019531 -9.96875 8.308594 0 L 36.320312 0 C 56.023438 0 73.351562 -6.054688 73.351562 -26.351562 C 73.351562 -43.796875 60.769531 -51.277344 46.410156 -53.769531 Z M 20.890625 -93.054688 L 30.742188 -93.054688 C 41.066406 -93.054688 54.835938 -89.375 54.835938 -73.828125 C 54.835938 -61.71875 48.78125 -54.835938 32.046875 -54.835938 L 20.890625 -54.835938 Z M 31.929688 -1.898438 L 20.890625 -1.898438 L 20.890625 -52.9375 L 33.234375 -52.9375 C 43.324219 -52.9375 60.535156 -48.070312 60.535156 -26.46875 C 60.535156 -8.425781 47.003906 -1.898438 31.929688 -1.898438 Z M 31.929688 -1.898438 "/></g></g></g><g fill="#bd8334" fill-opacity="1"><g transform="translate(270.459216, 242.730651)"><g><path d="M 69.671875 -83.917969 C 71.929688 -88.1875 72.996094 -90.324219 76.082031 -94.953125 L 72.878906 -94.953125 C 70.980469 -90.324219 70.027344 -88.425781 67.65625 -83.796875 L 47.359375 -44.628906 L 26.585938 -83.796875 C 24.214844 -88.1875 23.027344 -90.324219 21.484375 -94.953125 L 5.933594 -94.953125 C 9.375 -90.683594 10.917969 -88.308594 13.292969 -83.796875 L 35.964844 -40.949219 L 35.964844 -23.382812 C 35.964844 -14.71875 35.84375 -9.96875 35.015625 0 L 48.546875 0 C 47.832031 -9.96875 47.714844 -14.71875 47.714844 -23.382812 L 47.714844 -40.949219 Z M 69.671875 -83.917969 "/></g></g></g></svg>